<mxfile host="app.diagrams.net" modified="2023-11-30T13:37:50.650Z" agent="Mozilla/5.0 (Windows NT 10.0; Win64; x64) AppleWebKit/537.36 (KHTML, like Gecko) Chrome/119.0.0.0 Safari/537.36 Edg/119.0.0.0" version="22.1.5" etag="tgNrUN2v8jExeGS6R1Dx" type="github">
  <diagram name="Page-1" id="pvQFg9O13GGOI-50qFln">
    <mxGraphModel>
      <root>
        <mxCell id="0" />
        <mxCell id="1" parent="0" />
      </root>
    </mxGraphModel>
  </diagram>
</mxfile>
